<svg width="65" height="64" viewBox="0 0 65 64" fill="none" xmlns="http://www.w3.org/2000/svg">
<path d="M64.8723 9.02589C64.3011 39.5311 45.4495 63.981 32.8818 63.981C20.3141 63.981 1.46262 39.5311 0.891357 9.02589C3.19266 8.75823 5.33614 7.72125 6.97437 6.08301C8.61261 4.44478 9.64959 2.3013 9.91724 0H55.8464C56.1141 2.3013 57.1511 4.44478 58.7893 6.08301C60.4275 7.72125 62.571 8.75823 64.8723 9.02589Z" fill="#008080"/>
<path d="M39.3943 62.1555C37.4047 63.2844 35.1691 63.911 32.8819 63.981C21.4567 63.981 1.46262 39.5657 0.891365 9.10359C2.95696 8.88785 4.90872 8.05257 6.48971 6.7077C10.717 34.2034 26.7123 55.8806 39.3943 62.1555Z" fill="#000080"/>
<g clip-path="url(#clip0_43_34947)">
<path d="M43.5021 22.2395V38.8996C43.5021 39.2517 43.3622 39.5894 43.1133 39.8383C42.8643 40.0873 42.5267 40.2271 42.1746 40.2271H23.5896C23.2375 40.2271 22.8999 40.0873 22.6509 39.8383C22.4019 39.5894 22.2621 39.2517 22.2621 38.8996V22.2462L32.8821 15.6684L43.5021 22.2395Z" fill="#E9ECFF"/>
<path d="M43.5021 38.2359V38.8996C43.5021 39.2517 43.3622 39.5894 43.1133 39.8383C42.8643 40.0873 42.5267 40.2271 42.1746 40.2271H23.5896C23.2593 40.2288 22.9403 40.1073 22.6949 39.8864C22.4494 39.6655 22.2951 39.361 22.2621 39.0324V22.3059H24.2533V35.5809C24.2533 36.285 24.5331 36.9604 25.031 37.4583C25.5289 37.9562 26.2042 38.2359 26.9083 38.2359H43.5021Z" fill="#4747D4"/>
<path d="M39.5196 25.9565C38.8558 29.4744 38.6434 32.2621 35.8358 34.9171C34.9755 35.7489 33.9757 36.4229 32.8821 36.9084C27.2468 34.4193 26.842 29.1558 26.2446 25.9565C30.7714 23.4741 28.3553 24.7883 32.8821 22.3059C35.9353 23.9188 34.4353 23.0958 39.5196 25.9565Z" fill="#3F42FF"/>
<path d="M39.5199 25.9565C38.7898 29.8461 38.7367 32.0962 35.8228 34.3662C35.2745 34.8074 34.5918 35.048 33.888 35.048C33.1842 35.048 32.5015 34.8074 31.9531 34.3662C28.4685 31.5851 28.1963 28.127 27.672 25.16C33.1545 22.1399 27.672 25.16 32.8824 22.2926C35.9356 23.9188 34.4356 23.0957 39.5199 25.9565Z" fill="#40E0D0"/>
<path d="M32.2184 32.2623C31.8534 32.2623 31.933 32.2623 29.7559 30.0785C29.694 30.0166 29.6449 29.9432 29.6114 29.8623C29.578 29.7815 29.5607 29.6948 29.5607 29.6073C29.5607 29.5197 29.578 29.4331 29.6114 29.3522C29.6449 29.2714 29.694 29.1979 29.7559 29.136C29.8178 29.0741 29.8913 29.025 29.9721 28.9915C30.053 28.958 30.1397 28.9408 30.2272 28.9408C30.3147 28.9408 30.4014 28.958 30.4822 28.9915C30.5631 29.025 30.6366 29.0741 30.6984 29.136L32.2184 30.6626L35.7297 27.1448C35.8547 27.0198 36.0242 26.9496 36.2009 26.9496C36.3777 26.9496 36.5472 27.0198 36.6722 27.1448C36.7972 27.2697 36.8674 27.4393 36.8674 27.616C36.8674 27.7928 36.7972 27.9623 36.6722 28.0873C32.2914 32.468 32.5968 32.2623 32.2184 32.2623Z" fill="#F1F4FF"/>
<path d="M46.9906 20.9374C47.645 21.3358 47.8848 22.1692 47.5422 22.8544C47.1548 23.6292 46.1858 23.9041 45.4494 23.4481L34.0893 16.4157C33.3491 15.9575 32.4139 15.9556 31.6718 16.4108L20.2801 23.3987C19.5698 23.8344 18.639 23.5795 18.2499 22.8426C17.8936 22.1681 18.1239 21.3329 18.7755 20.9363L31.6841 13.0788C32.42 12.6309 33.3442 12.6309 34.08 13.0788L46.9906 20.9374Z" fill="#000080"/>
<path d="M33.0253 12.267L17.7218 21.5668L18.1449 22.5844L32.905 13.8834L47.5576 22.8168L48.2214 21.4893L33.0253 12.267Z" fill="#0C06AC"/>
<path d="M43.5021 22.2395V24.6423L32.2183 17.6596L22.2621 23.8259V22.2462L32.8821 15.6684L43.5021 22.2395Z" fill="#4747D4"/>
</g>
<defs>
<clipPath id="clip0_43_34947">
<rect width="30.6358" height="27.968" fill="white" transform="translate(17.6156 12.2645)"/>
</clipPath>
</defs>
</svg>
