<svg width="25" height="25" viewBox="0 0 25 25" fill="none" xmlns="http://www.w3.org/2000/svg">
<path d="M22.8818 15.981C22.8818 19.851 19.7518 22.981 15.8818 22.981L16.9318 21.231" stroke="#949494" stroke-width="1.5" stroke-linecap="round" stroke-linejoin="round"/>
<path d="M2.88184 9.98096C2.88184 6.11096 6.01184 2.98096 9.88184 2.98096L8.83183 4.73096" stroke="#949494" stroke-width="1.5" stroke-linecap="round" stroke-linejoin="round"/>
<path d="M14.5818 5.43097L18.5618 7.73096L22.5018 5.44098" stroke="#949494" stroke-width="1.5" stroke-linecap="round" stroke-linejoin="round"/>
<path d="M18.5618 11.801V7.72095" stroke="#949494" stroke-width="1.5" stroke-linecap="round" stroke-linejoin="round"/>
<path d="M17.6218 3.19096L15.2218 4.52091C14.6818 4.82091 14.2318 5.58091 14.2318 6.20091V8.74094C14.2318 9.36094 14.6718 10.1209 15.2218 10.4209L17.6218 11.751C18.1318 12.041 18.9718 12.041 19.4918 11.751L21.8918 10.4209C22.4318 10.1209 22.8818 9.36094 22.8818 8.74094V6.20091C22.8818 5.58091 22.4418 4.82091 21.8918 4.52091L19.4918 3.19096C18.9818 2.91096 18.1418 2.91096 17.6218 3.19096Z" stroke="#949494" stroke-width="1.5" stroke-linecap="round" stroke-linejoin="round"/>
<path d="M3.23184 16.431L7.20184 18.731L11.1518 16.441" stroke="#949494" stroke-width="1.5" stroke-linecap="round" stroke-linejoin="round"/>
<path d="M7.20184 22.801V18.7209" stroke="#949494" stroke-width="1.5" stroke-linecap="round" stroke-linejoin="round"/>
<path d="M6.27184 14.191L3.87184 15.5209C3.33184 15.8209 2.88184 16.5809 2.88184 17.2009V19.7409C2.88184 20.3609 3.32184 21.1209 3.87184 21.4209L6.27184 22.751C6.78184 23.041 7.62183 23.041 8.14183 22.751L10.5418 21.4209C11.0818 21.1209 11.5318 20.3609 11.5318 19.7409V17.2009C11.5318 16.5809 11.0918 15.8209 10.5418 15.5209L8.14183 14.191C7.62183 13.911 6.78184 13.911 6.27184 14.191Z" stroke="#949494" stroke-width="1.5" stroke-linecap="round" stroke-linejoin="round"/>
</svg>
