<svg width="25" height="25" viewBox="0 0 25 25" fill="none" xmlns="http://www.w3.org/2000/svg">
<path d="M13.5418 3.49909L13.5118 3.56909L10.6118 10.2991H7.76184C7.08184 10.2991 6.43183 10.4391 5.84184 10.6891L7.59184 6.50909L7.63183 6.40909L7.70184 6.24909C7.72184 6.18909 7.74184 6.12909 7.77184 6.07909C9.08184 3.04909 10.5618 2.35909 13.5418 3.49909Z" stroke="#949494" stroke-width="1.5" stroke-linecap="round" stroke-linejoin="round"/>
<path d="M18.9318 10.4991C18.4818 10.3591 18.0018 10.2991 17.5218 10.2991H10.6118L13.5118 3.56908L13.5418 3.49908C13.6918 3.54908 13.8318 3.61908 13.9818 3.67908L16.1918 4.60908C17.4218 5.11908 18.2818 5.64908 18.8018 6.28908C18.9018 6.40908 18.9818 6.51908 19.0518 6.64908C19.1418 6.78908 19.2118 6.92908 19.2518 7.07908C19.2918 7.16908 19.3218 7.25908 19.3418 7.33908C19.6118 8.17908 19.4518 9.20908 18.9318 10.4991Z" stroke="#949494" stroke-width="1.5" stroke-linecap="round" stroke-linejoin="round"/>
<path d="M22.4036 15.1793V17.1293C22.4036 17.3293 22.3936 17.5293 22.3836 17.7293C22.1936 21.2193 20.2436 22.9793 16.5436 22.9793H8.74356C8.50356 22.9793 8.26355 22.9593 8.03355 22.9293C4.85355 22.7193 3.15355 21.0193 2.94355 17.8393C2.91355 17.6093 2.89355 17.3693 2.89355 17.1293V15.1793C2.89355 13.1693 4.11355 11.4393 5.85355 10.6893C6.45355 10.4393 7.09355 10.2993 7.77355 10.2993H17.5336C18.0236 10.2993 18.5036 10.3693 18.9436 10.4993C20.9336 11.1093 22.4036 12.9693 22.4036 15.1793Z" stroke="#949494" stroke-width="1.5" stroke-linecap="round" stroke-linejoin="round"/>
<path d="M7.59184 6.50909L5.84184 10.6891C4.10184 11.4391 2.88184 13.1691 2.88184 15.1791V12.2491C2.88184 9.40909 4.90184 7.03909 7.59184 6.50909Z" stroke="#949494" stroke-width="1.5" stroke-linecap="round" stroke-linejoin="round"/>
<path d="M22.4004 12.2486V15.1786C22.4004 12.9786 20.9404 11.1086 18.9404 10.5086C19.4604 9.20861 19.6104 8.18861 19.3604 7.33861C19.3404 7.24861 19.3104 7.15861 19.2704 7.07861C21.1304 8.03861 22.4004 10.0086 22.4004 12.2486Z" stroke="#949494" stroke-width="1.5" stroke-linecap="round" stroke-linejoin="round"/>
</svg>
