<svg width="25" height="25" viewBox="0 0 25 25" fill="none" xmlns="http://www.w3.org/2000/svg">
<path d="M12.8818 14.981H13.8818C14.9818 14.981 15.8818 14.081 15.8818 12.981V2.98096H6.88184C5.38184 2.98096 4.07185 3.81094 3.39185 5.03094" stroke="#949494" stroke-width="1.5" stroke-linecap="round" stroke-linejoin="round"/>
<path d="M2.88184 17.981C2.88184 19.641 4.22184 20.981 5.88184 20.981H6.88184C6.88184 19.881 7.78184 18.981 8.88184 18.981C9.98184 18.981 10.8818 19.881 10.8818 20.981H14.8818C14.8818 19.881 15.7818 18.981 16.8818 18.981C17.9818 18.981 18.8818 19.881 18.8818 20.981H19.8818C21.5418 20.981 22.8818 19.641 22.8818 17.981V14.981H19.8818C19.3318 14.981 18.8818 14.531 18.8818 13.981V10.981C18.8818 10.431 19.3318 9.98096 19.8818 9.98096H21.1718L19.4619 6.99097C19.1019 6.37097 18.4419 5.98096 17.7219 5.98096H15.8818V12.981C15.8818 14.081 14.9818 14.981 13.8818 14.981H12.8818" stroke="#949494" stroke-width="1.5" stroke-linecap="round" stroke-linejoin="round"/>
<path d="M8.88184 22.981C9.98641 22.981 10.8818 22.0855 10.8818 20.981C10.8818 19.8764 9.98641 18.981 8.88184 18.981C7.77727 18.981 6.88184 19.8764 6.88184 20.981C6.88184 22.0855 7.77727 22.981 8.88184 22.981Z" stroke="#949494" stroke-width="1.5" stroke-linecap="round" stroke-linejoin="round"/>
<path d="M16.8818 22.981C17.9864 22.981 18.8818 22.0855 18.8818 20.981C18.8818 19.8764 17.9864 18.981 16.8818 18.981C15.7773 18.981 14.8818 19.8764 14.8818 20.981C14.8818 22.0855 15.7773 22.981 16.8818 22.981Z" stroke="#949494" stroke-width="1.5" stroke-linecap="round" stroke-linejoin="round"/>
<path d="M22.8818 12.981V14.981H19.8818C19.3318 14.981 18.8818 14.531 18.8818 13.981V10.981C18.8818 10.431 19.3318 9.98096 19.8818 9.98096H21.1718L22.8818 12.981Z" stroke="#949494" stroke-width="1.5" stroke-linecap="round" stroke-linejoin="round"/>
<path d="M2.88184 8.98096H8.88184" stroke="#949494" stroke-width="1.5" stroke-linecap="round" stroke-linejoin="round"/>
<path d="M2.88184 11.981H6.88184" stroke="#949494" stroke-width="1.5" stroke-linecap="round" stroke-linejoin="round"/>
<path d="M2.88184 14.981H4.88184" stroke="#949494" stroke-width="1.5" stroke-linecap="round" stroke-linejoin="round"/>
</svg>
