<svg width="25" height="25" viewBox="0 0 25 25" fill="none" xmlns="http://www.w3.org/2000/svg">
<path d="M23.8818 18.8909C23.9018 19.6409 23.7018 20.3509 23.3418 20.9609C23.1418 21.3209 22.8718 21.651 22.5718 21.921C21.8818 22.561 20.9718 22.951 19.9618 22.981C18.5018 23.011 17.2118 22.261 16.5018 21.111C16.1218 20.521 15.8918 19.811 15.8818 19.061C15.8518 17.801 16.4118 16.661 17.3118 15.911C17.9918 15.351 18.8518 15.001 19.7918 14.981C22.0018 14.931 23.8318 16.6809 23.8818 18.8909Z" stroke="#949494" stroke-width="1.5" stroke-miterlimit="10" stroke-linecap="round" stroke-linejoin="round"/>
<path d="M18.3218 19.011L19.3318 19.9709L21.4218 17.9509" stroke="#949494" stroke-width="1.5" stroke-linecap="round" stroke-linejoin="round"/>
<path d="M4.05185 8.42096L12.8818 13.5309L21.6518 8.45093" stroke="#949494" stroke-width="1.5" stroke-linecap="round" stroke-linejoin="round"/>
<path d="M12.8818 22.5909V13.5209" stroke="#949494" stroke-width="1.5" stroke-linecap="round" stroke-linejoin="round"/>
<path d="M22.4918 10.151V15.811C22.4918 15.861 22.4918 15.9009 22.4818 15.9509C21.7818 15.3409 20.8818 14.981 19.8818 14.981C18.9418 14.981 18.0718 15.311 17.3818 15.861C16.4618 16.591 15.8818 17.721 15.8818 18.981C15.8818 19.731 16.0918 20.441 16.4618 21.041C16.5518 21.201 16.6618 21.351 16.7818 21.491L14.9518 22.501C13.8118 23.141 11.9518 23.141 10.8118 22.501L5.47183 19.541C4.26183 18.871 3.27185 17.191 3.27185 15.811V10.151C3.27185 8.77096 4.26183 7.09098 5.47183 6.42098L10.8118 3.46096C11.9518 2.82096 13.8118 2.82096 14.9518 3.46096L20.2918 6.42098C21.5018 7.09098 22.4918 8.77096 22.4918 10.151Z" stroke="#949494" stroke-width="1.5" stroke-linecap="round" stroke-linejoin="round"/>
</svg>
