<svg width="25" height="25" viewBox="0 0 25 25" fill="none" xmlns="http://www.w3.org/2000/svg">
<path d="M19.8818 8.98096C21.5387 8.98096 22.8818 7.63781 22.8818 5.98096C22.8818 4.3241 21.5387 2.98096 19.8818 2.98096C18.225 2.98096 16.8818 4.3241 16.8818 5.98096C16.8818 7.63781 18.225 8.98096 19.8818 8.98096Z" stroke="#949494" stroke-width="1.5" stroke-linecap="round" stroke-linejoin="round"/>
<path d="M14.9018 3.18096C14.2418 3.05096 13.5718 2.98096 12.8818 2.98096C7.36184 2.98096 2.88184 7.46096 2.88184 12.981C2.88184 18.501 7.36184 22.981 12.8818 22.981C18.4018 22.981 22.8818 18.501 22.8818 12.981C22.8818 12.301 22.8118 11.631 22.6818 10.991" stroke="#949494" stroke-width="1.5" stroke-linecap="round" stroke-linejoin="round"/>
</svg>
