<svg width="25" height="25" viewBox="0 0 25 25" fill="none" xmlns="http://www.w3.org/2000/svg">
<path d="M9.13816 3.82095L3.74816 8.02095C2.84816 8.72095 2.11816 10.211 2.11816 11.341V18.751C2.11816 21.071 4.00816 22.971 6.32816 22.971H17.9082C20.2282 22.971 22.1182 21.071 22.1182 18.761V11.481C22.1182 10.271 21.3082 8.72095 20.3182 8.03095L14.1382 3.70095C12.7382 2.72095 10.4882 2.77095 9.13816 3.82095Z" stroke="#949494" stroke-width="1.5" stroke-linecap="round" stroke-linejoin="round"/>
<path d="M10.6182 18.981H13.6182C15.2682 18.981 16.6182 17.631 16.6182 15.981V12.981C16.6182 11.331 15.2682 9.98096 13.6182 9.98096H10.6182C8.96816 9.98096 7.61816 11.331 7.61816 12.981V15.981C7.61816 17.631 8.96816 18.981 10.6182 18.981Z" stroke="#949494" stroke-width="1.5" stroke-linecap="round" stroke-linejoin="round"/>
<path d="M12.1182 9.98096V18.981" stroke="#949494" stroke-width="1.5" stroke-linecap="round" stroke-linejoin="round"/>
<path d="M7.61816 14.481H16.6182" stroke="#949494" stroke-width="1.5" stroke-linecap="round" stroke-linejoin="round"/>
</svg>
