<svg width="25" height="25" viewBox="0 0 25 25" fill="none" xmlns="http://www.w3.org/2000/svg">
<path d="M12.8818 10.481C14.8148 10.481 16.3818 8.91395 16.3818 6.98096C16.3818 5.04796 14.8148 3.48096 12.8818 3.48096C10.9488 3.48096 9.38184 5.04796 9.38184 6.98096C9.38184 8.91395 10.9488 10.481 12.8818 10.481Z" stroke="#949494" stroke-width="2"/>
<path d="M8.84684 14.679C10.0155 14.2178 11.2605 13.981 12.5168 13.981H13.2468C14.5032 13.981 15.7482 14.2178 16.9168 14.679L17.6288 14.959C18.3308 15.237 18.9788 15.634 19.5428 16.135L19.6588 16.238C20.2007 16.7188 20.6344 17.309 20.9314 17.9697C21.2284 18.6304 21.3819 19.3466 21.3818 20.071C21.3818 20.849 20.7518 21.48 19.9718 21.48H5.79184C5.41788 21.48 5.05924 21.3314 4.79482 21.067C4.53039 20.8026 4.38184 20.4439 4.38184 20.07C4.38197 19.3456 4.53558 18.6295 4.83257 17.9688C5.12956 17.3081 5.56317 16.7179 6.10484 16.237L6.22084 16.134C6.78519 15.6333 7.43301 15.2356 8.13484 14.959L8.84684 14.678V14.679Z" stroke="#949494" stroke-width="2"/>
</svg>
